#N canvas 544 267 578 525 10;
#X obj 104 51 hsl 128 15 0 127 0 0 empty empty empty -2 -8 0 10 -262144
-1 -1 5500 1;
#X obj 101 70 / 127;
#X obj 246 52 hsl 128 15 0 127 0 0 empty empty empty -2 -8 0 10 -262144
-1 -1 9000 1;
#X obj 243 71 / 127;
#X floatatom 61 87 5 0 0 0 - - -;
#X floatatom 243 94 5 0 0 0 - - -;
#X obj 192 157 +!;
#X obj 199 188 * 0.5;
#X obj 100 219 -!;
#X obj 262 234 -!;
#X obj 107 286 *!;
#X floatatom 148 245 5 0 0 0 - - -;
#X obj 252 291 *!;
#X obj 76 343 +!;
#X floatatom 194 220 5 0 0 0 - - -;
#X obj 221 356 +!;
#X floatatom 224 383 5 0 0 0 - - -;
#X floatatom 77 383 5 0 0 0 - - -;
#X obj 161 419 max!;
#X obj 225 462 div!;
#X obj 78 459 div!;
#X floatatom 60 492 5 0 0 0 - - -;
#X floatatom 227 489 5 0 0 0 - - -;
#X connect 0 0 1 0;
#X connect 1 0 4 0;
#X connect 2 0 3 0;
#X connect 3 0 5 0;
#X connect 4 0 6 0;
#X connect 4 0 8 0;
#X connect 5 0 6 1;
#X connect 5 0 9 0;
#X connect 6 0 7 0;
#X connect 7 0 8 1;
#X connect 7 0 9 1;
#X connect 7 0 14 0;
#X connect 8 0 10 0;
#X connect 9 0 12 0;
#X connect 10 0 13 1;
#X connect 11 0 10 1;
#X connect 11 0 12 1;
#X connect 12 0 15 1;
#X connect 13 0 17 0;
#X connect 14 0 13 0;
#X connect 14 0 15 0;
#X connect 15 0 16 0;
#X connect 16 0 18 0;
#X connect 16 0 19 0;
#X connect 17 0 18 1;
#X connect 17 0 20 0;
#X connect 18 0 20 1;
#X connect 19 0 22 0;
#X connect 20 0 21 0;
