#N canvas 0 22 450 300 10;
#X obj 137 56 inlet;
#X obj 207 56 inlet;
#X obj 154 141 +;
#X obj 172 90 f;
#X obj 231 111 t b f;
#X obj 181 220 outlet;
#X connect 0 0 3 1;
#X connect 0 0 2 0;
#X connect 1 0 4 0;
#X connect 2 0 5 0;
#X connect 3 0 2 0;
#X connect 4 0 3 0;
#X connect 4 1 2 1;
