#N canvas 496 238 435 341 10;
#X obj 153 243 line~;
#X obj 153 265 *~;
#X obj 153 287 *~;
#X obj 114 176 * 0.25;
#X obj 114 198 dbtorms;
#X obj 114 220 * 5623.42;
#X obj 146 151 unpack;
#X obj 169 100 r \$1;
#X obj 153 312 outlet~;
#X text 22 31 \$1 is the name of the receive symbol.;
#X text 22 53 outlet is the level as a signal.;
#X text 21 11 control an amplitude in dB using quartic segments.;
#X obj 169 124 t l b;
#X obj 199 219 30;
#X text 25 74 If no time value is given \, 30 is used.;
#X connect 0 0 1 0;
#X connect 0 0 1 1;
#X connect 1 0 2 0;
#X connect 1 0 2 1;
#X connect 2 0 8 0;
#X connect 3 0 4 0;
#X connect 4 0 5 0;
#X connect 5 0 0 0;
#X connect 6 0 3 0;
#X connect 6 1 0 1;
#X connect 7 0 12 0;
#X connect 12 0 6 0;
#X connect 12 1 13 0;
#X connect 13 0 0 1;
