#N canvas 799 152 716 358 10;
#X obj 134 32 adc~ 19 20;
#X obj -135 89 crybaby;
#X obj -56 160 crybaby;
#X obj 100 283 dac~ 1 2;
#X obj -199 168 ctlin 94;
#X floatatom -198 193 5 0 0 0 - - -;
#X obj -197 220 !- 127;
#X obj -196 241 / 127;
#X obj -141 285 prepend Wah-parameter;
#X connect 0 0 1 1;
#X connect 0 1 2 1;
#X connect 1 1 3 0;
#X connect 2 1 3 1;
#X connect 4 0 5 0;
#X connect 5 0 6 0;
#X connect 6 0 7 0;
#X connect 7 0 8 0;
#X connect 8 0 2 0;
#X connect 8 0 1 0;
