#N canvas 460 93 1279 683 10;
#X declare -path ../../lib -path .;
#N canvas 0 22 450 202 tests 0;
#X obj 56 61 inlet;
#X obj 233 53 inlet;
#X obj 56 87 != 0;
#X obj 56 113 * 0.03;
#X obj 231 81 != 0;
#X obj 228 108 * 0.03;
#X obj 56 137 throw~ adc1-addin;
#X obj 228 135 throw~ adc2-addin;
#X connect 0 0 2 0;
#X connect 1 0 4 0;
#X connect 2 0 3 0;
#X connect 3 0 6 0;
#X connect 4 0 5 0;
#X connect 5 0 7 0;
#X restore 16 298 pd tests;
#X obj 12 4 sequencer;
#X obj 481 62 vu 15 120 vu-out1 vu-out1 -1 -8 0 9 -66577 -1 0 0;
#X obj 529 62 vu 15 120 vu-out2 vu-out2 -1 -8 0 9 -66577 -1 0 0;
#X obj 16 276 tgl 15 0 empty empty empty 0 -6 0 8 -262144 -1 -1 0 1
;
#X obj 67 277 tgl 15 0 empty empty empty 0 -6 0 8 -262144 -1 -1 0 1
;
#X msg 17 404 1;
#X obj 17 427 s section-start;
#X text 45 405 MANTRA;
#X text 475 187 LEFT;
#X text 519 187 RIGHT;
#X obj 382 62 vu 15 120 vu-in1 vu-in1 -1 -8 0 9 -66577 -1 0 0;
#X obj 430 62 vu 15 120 vu-in2 vu-in2 -1 -8 0 9 -66577 -1 0 0;
#X text 376 187 LEFT;
#X text 420 187 RIGHT;
#X text 383 28 --input--;
#X text 399 76 -90-;
#X text 399 103 -85-;
#X text 399 118 -80-;
#X text 399 134 -70-;
#X text 399 154 -50-;
#X text 498 76 -90-;
#X text 498 103 -85-;
#X text 498 118 -80-;
#X text 498 134 -70-;
#X text 498 154 -50-;
#X text 489 28 -output-;
#X text 105 237 click to;
#X obj 15 253 score-editor;
#X text 106 251 <- open;
#X obj 15 230 bng 20 250 50 0 empty empty empty 0 -6 0 8 -262144 -1
-1;
#X text 38 230 START;
#X text 17 211 -----test score----;
#X obj 587 63 vsl 15 100 0 100 0 1 master-in empty master-in 0 -9 0
10 -159808 -262144 -1 9900 1;
#X floatatom 587 195 5 0 0 0 - - -;
#X obj 669 62 vsl 15 100 0 100 0 1 master-out empty master-out 0 -9
0 10 -159808 -262144 -1 9900 1;
#X floatatom 669 196 5 0 0 0 - - -;
#X obj 752 60 vsl 15 100 0 100 0 1 gain-direct gain-direct-set gain-direct
0 -9 0 10 -4034 -1 -1 9180 1;
#X obj 839 59 vsl 15 100 0 100 0 1 gain-modulated gain-modulated-set
gain-modulated 0 -9 0 10 -4034 -1 -1 9412 1;
#X obj 587 174 speedlim 200;
#X obj 669 173 speedlim 200;
#X floatatom 752 195 5 0 0 0 - - -;
#X obj 752 172 speedlim 200;
#X floatatom 839 194 5 0 0 0 - - -;
#X obj 839 171 speedlim 200;
#X obj 116 356 bng 8 250 50 0 empty osc-alive empty 17 7 0 10 -1 -262144
-1;
#N canvas 252 127 806 572 receive-midi 1;
#X text -232 6 piano1: midi comming directly \, ch 1 \, cc 1-8;
#X text 62 5 piano2: midi comming from osc;
#X obj -159 58 unpackOSC;
#X obj -160 110 unpack f f f;
#X text -170 129 value/cntl/chan;
#X obj -86 279 s midi2-raw-controller;
#X obj -149 307 s midi2-raw-data;
#X obj -159 36 udpreceive 12345;
#X obj -46 110 s osc-alive;
#X obj -221 110 ctlin;
#X obj -196 174 pack;
#X obj -175 226 route 1 2;
#X obj -175 202 prepend;
#X obj -215 250 unpack;
#X obj -149 250 unpack;
#X obj -182 334 s midi1-raw-controller;
#X obj -288 306 s midi1-raw-data;
#X obj -160 80 routeOSC /cntl /notein /metro;
#X floatatom -58 170 5 0 0 0 - - -;
#X floatatom -20 170 5 0 0 0 - - -;
#X floatatom 15 171 5 0 0 0 - - -;
#X connect 2 0 17 0;
#X connect 3 0 10 0;
#X connect 3 0 18 0;
#X connect 3 1 10 1;
#X connect 3 1 19 0;
#X connect 3 2 12 1;
#X connect 3 2 20 0;
#X connect 7 0 2 0;
#X connect 9 0 10 0;
#X connect 9 0 18 0;
#X connect 9 1 10 1;
#X connect 9 1 19 0;
#X connect 9 2 12 1;
#X connect 9 2 20 0;
#X connect 10 0 12 0;
#X connect 11 0 13 0;
#X connect 11 1 14 0;
#X connect 12 0 11 0;
#X connect 13 0 16 0;
#X connect 13 1 15 0;
#X connect 14 0 6 0;
#X connect 14 1 5 0;
#X connect 17 0 3 0;
#X connect 17 2 8 0;
#X restore 18 352 pd receive-midi;
#X obj 17 381 r mantra-start;
#X text 110 380 ("s");
#X text 791 205 comment;
#X obj 191 220 cnv 15 280 270 empty empty piano_1 20 12 0 14 -262130
-66577 0;
#X floatatom 272 273 5 0 0 0 ring1-pitch ring1-pitch-set ring1-pitch
;
#X floatatom 273 352 3 0 127 0 pitctl1 pitctl1-set pitctl1;
#X floatatom 271 251 5 0 0 0 ring1-p2 ring1-p2-set ring1-p2;
#X floatatom 273 304 3 0 120 0 ring1-plus ring1-plus-set ring1-plus
;
#X floatatom 273 323 3 0 120 0 ring1-minus ring1-minus-set ring1-minus
;
#X floatatom 273 377 3 0 127 0 ctl-select1 ctl-select1-set ctl-select1
;
#X symbolatom 327 274 5 0 0 0 - ring1-pitch-notename -;
#X symbolatom 326 252 5 0 0 0 - ring1-p2-notename -;
#X floatatom 435 423 5 0 0 0 midi1-data midi1-data-show -;
#X floatatom 433 444 5 0 0 0 midi1-mapped-data midi1-mapped-data-show
-;
#X obj 346 350 pddp/print;
#X obj 346 330 r pitctl1-notename;
#X obj 487 221 cnv 15 290 270 empty empty piano_2 20 12 0 14 -261234
-66577 0;
#X floatatom 562 277 5 0 0 0 ring2-pitch ring2-pitch-set ring2-pitch
;
#X floatatom 561 253 5 0 0 0 ring2-p2 ring2-p2-set ring2-p2;
#X floatatom 562 309 3 0 120 0 ring2-plus ring2-plus-set ring2-plus
;
#X floatatom 562 328 3 0 120 0 ring2-minus ring2-minus-set ring2-minus
;
#X floatatom 563 357 3 0 127 0 pitctl2 pitctl2-set pitctl2;
#X floatatom 565 380 3 0 127 0 ctl-select2 ctl-select2-set ctl-select2
;
#X symbolatom 622 277 10 0 0 0 - ring2-pitch-notename -;
#X symbolatom 622 253 5 0 0 0 - ring2-p2-notename -;
#X floatatom 717 426 5 0 0 0 midi2-data midi2-data-show -;
#X floatatom 717 448 5 0 0 0 midi2-mapped-data midi2-mapped-data-show
-;
#X obj 649 355 pddp/print;
#X obj 649 335 r pitctl2-notename;
#N canvas 608 66 430 205 guts 1;
#N canvas 386 22 689 503 reset 0;
#X obj 41 24 r reset;
#X obj 271 64 r reset-faders1;
#X obj 439 59 r reset-ui;
#X msg 440 95 \; show-event bang \; show-next bang \; pitctl2-notename
bang \; pitctl1-notename bang \; ctl1-mapped-set 0 \; midi1-data-show
0 \; midi1-mapped-data-show 0 \; midi1-mapped-name bang \; pitctl1-mapped-set
0 \; ring1-pitch-notename set _ \; ring1-p2-notename set _ \; ctl2-mapped-set
0 \; midi2-data 0 \; midi2-mapped-data-show 0 \; midi2-mapped-name
bang \; ring2-pitch-notename set _ \; ring2-p2-notename set _ \;;
#X msg 268 94 \; p1-fader 63 1 \; p1-fader 0 2 \; p1-fader 0 3 \; p1-fader
127 4 \; p1-fader 0 5 \; p1-fader 0 6 \; p1-fader 127 7 \; p1-fader
127 8 \; p1-fader 0 21 \; p1-fader 0 22 \; p1-fader 0 23 \; p1-fader
0 24 \; p1-fader 0 25 \; p1-fader 0 26 \; p1-fader 0 27 \; p1-fader
0 28 \; p1-fader 0 11 \;;
#X obj 32 346 r delayed-reset;
#X obj 32 370 delay 500;
#X msg 32 397 \; pitch-track-on 0 \; follow-midi 0 \;;
#X msg 41 64 \; delayed-reset bang \; ring1-pitch 0 \; ring1-p2 0 \;
ring1-plus 0 \; ring1-minus 0 \; ring2-pitch 0 \; ring2-p2 0 \; ring2-plus
0 \; ring2-minus 0 \; ctl-select1 0 \; ctl-select2 8 \; morse-status-set
0 \; morse-midi-feedback 0 \; gain-morse-set 0 \; gain-morse 0 \; reset-ui
bang \;;
#X connect 0 0 8 0;
#X connect 1 0 4 0;
#X connect 2 0 3 0;
#X connect 5 0 6 0;
#X connect 6 0 7 0;
#X restore 159 26 pd reset;
#N canvas 452 22 931 977 audio-works 1;
#X obj 160 169 hilbert~;
#X obj 304 -19 * 0.25;
#X obj 360 51 line~;
#X obj 319 147 *~;
#X obj 319 169 *~;
#X obj 304 25 * 0.206825;
#X obj 159 277 *~;
#X obj 237 373 *~;
#X obj 316 -45 unpack;
#X obj 159 195 complex-mod~;
#X obj 160 144 r~ input-signal1;
#X obj 391 402 hilbert~;
#X obj 552 299 * 0.25;
#X obj 614 367 line~;
#X obj 577 394 *~;
#X obj 577 416 *~;
#X obj 552 343 * 0.206825;
#X obj 392 477 *~;
#X obj 471 483 *~;
#X obj 569 274 unpack;
#X obj 391 433 complex-mod~;
#X obj 391 376 r~ input-signal2;
#X obj 582 0 * 0.25;
#X obj 632 75 line~;
#X obj 582 44 * 0.206825;
#X obj 624 -23 unpack;
#N canvas 31 79 582 506 pitbis1 1;
#X obj 163 355 outlet~;
#X obj 164 331 line~;
#X floatatom 19 111 0 0 0 0 - - -;
#X obj 18 195 moses;
#X floatatom 207 158 0 0 0 0 - - -;
#X obj 48 220 - 1;
#X text 240 159 bottom of current jitter interval (0-126);
#X obj 207 183 change;
#X obj 207 207 t f b b;
#X obj 190 256 timer;
#X obj 190 283 moses 200;
#X msg 239 312 200;
#X floatatom 129 245 0 0 0 0 - - -;
#X obj 48 172 + 1;
#X obj 142 283 / 126;
#X obj 296 187 r bash-ctl1;
#X obj 296 218 t f b;
#X obj 19 19 r pitctl1;
#X obj 296 249 s pitctl1;
#X obj 61 86 r midi1-data;
#X obj 48 315 s midi1-ratio;
#X floatatom 57 421 5 0 0 0 - - -;
#X connect 1 0 0 0;
#X connect 2 0 3 0;
#X connect 3 0 4 0;
#X connect 3 1 5 0;
#X connect 4 0 7 0;
#X connect 4 0 13 0;
#X connect 5 0 4 0;
#X connect 7 0 8 0;
#X connect 8 0 14 0;
#X connect 8 1 9 0;
#X connect 8 2 9 1;
#X connect 9 0 10 0;
#X connect 10 0 1 1;
#X connect 10 1 11 0;
#X connect 11 0 1 1;
#X connect 12 0 14 0;
#X connect 13 0 3 1;
#X connect 14 0 1 0;
#X connect 14 0 20 0;
#X connect 14 0 21 0;
#X connect 15 0 16 0;
#X connect 16 0 18 0;
#X connect 16 1 9 0;
#X connect 17 0 2 0;
#X connect 19 0 2 0;
#X restore 599 135 pd pitbis1;
#X obj 565 110 -~;
#X obj 565 135 *~;
#X obj 346 120 +~;
#X obj 673 292 * 0.25;
#X obj 723 367 line~;
#X obj 673 336 * 0.206825;
#X obj 715 269 unpack;
#X obj 682 397 -~;
#X obj 682 418 *~;
#X obj 615 393 +~;
#X obj 85 452 *~;
#X obj 373 507 *~;
#N canvas 561 104 573 496 pitbis2 0;
#X obj 163 355 outlet~;
#X obj 164 331 line~;
#X floatatom 19 111 0 0 0 0 - - -;
#X obj 18 195 moses;
#X floatatom 207 158 0 0 0 0 - - -;
#X obj 48 220 - 1;
#X text 240 159 bottom of current jitter interval (0-126);
#X obj 207 183 change;
#X obj 207 207 t f b b;
#X obj 190 256 timer;
#X obj 190 283 moses 200;
#X msg 239 312 200;
#X floatatom 129 245 0 0 0 0 - - -;
#X obj 48 172 + 1;
#X obj 142 283 / 126;
#X obj 296 218 t f b;
#X obj 19 19 r pitctl2;
#X obj 61 86 r midi2-data;
#X obj 296 187 r bash-ctl2;
#X obj 296 249 s pitctl2;
#X obj 48 319 s midi2-ratio;
#X connect 1 0 0 0;
#X connect 2 0 3 0;
#X connect 3 0 4 0;
#X connect 3 1 5 0;
#X connect 4 0 7 0;
#X connect 4 0 13 0;
#X connect 5 0 4 0;
#X connect 7 0 8 0;
#X connect 8 0 14 0;
#X connect 8 1 9 0;
#X connect 8 2 9 1;
#X connect 9 0 10 0;
#X connect 10 0 1 1;
#X connect 10 1 11 0;
#X connect 11 0 1 1;
#X connect 12 0 14 0;
#X connect 13 0 3 1;
#X connect 14 0 1 0;
#X connect 14 0 20 0;
#X connect 15 0 19 0;
#X connect 15 1 9 0;
#X connect 16 0 2 0;
#X connect 17 0 2 0;
#X connect 18 0 15 0;
#X restore 713 418 pd pitbis2;
#X obj 316 -67 r ring1-pitch;
#X obj 624 -45 r ring1-p2;
#X obj 569 251 r ring2-pitch;
#X obj 715 247 r ring2-p2;
#X obj 506 459 amp-quartic~ ring2-plus;
#X obj 250 306 amp-quartic~ ring1-minus;
#X obj 12 219 amp-quartic~ ring1-plus;
#X obj 508 485 amp-quartic~ ring2-minus;
#X obj 27 321 amp-linear~ tgp~;
#X obj 94 474 send-vu vu-out1 meters;
#X obj 386 529 send-vu vu-out2 meters;
#X obj 85 498 s~ piano1-mod;
#X obj 374 552 s~ piano2-mod;
#X obj 324 3 mtof2;
#X obj 582 22 mtof2;
#X obj 439 -105 r piano-intonation;
#X obj 552 321 mtof2;
#X obj 673 314 mtof2;
#X obj 177 88 snapshot~;
#X obj 153 59 metro 20;
#X msg 105 54 1;
#X floatatom 94 111 5 0 0 0 - - -;
#X floatatom 280 245 5 0 0 0 - - -;
#X obj 174 254 *~;
#X obj 252 341 *~;
#X obj 422 466 *~;
#X obj 456 507 *~;
#X msg 282 221 3;
#X obj 610 194 r piano-intonation;
#X connect 0 0 9 0;
#X connect 0 1 9 1;
#X connect 1 0 53 0;
#X connect 2 0 27 1;
#X connect 2 0 29 0;
#X connect 3 0 4 0;
#X connect 3 0 4 1;
#X connect 4 0 9 2;
#X connect 5 0 2 0;
#X connect 6 0 37 1;
#X connect 7 0 37 1;
#X connect 8 0 1 0;
#X connect 8 1 2 1;
#X connect 9 0 6 0;
#X connect 9 1 7 0;
#X connect 10 0 0 0;
#X connect 11 0 20 0;
#X connect 11 1 20 1;
#X connect 12 0 56 0;
#X connect 13 0 34 1;
#X connect 13 0 36 0;
#X connect 14 0 15 0;
#X connect 14 0 15 1;
#X connect 15 0 20 2;
#X connect 16 0 13 0;
#X connect 17 0 65 0;
#X connect 18 0 66 0;
#X connect 19 0 12 0;
#X connect 19 1 13 1;
#X connect 20 0 17 0;
#X connect 20 1 18 0;
#X connect 21 0 11 0;
#X connect 22 0 54 0;
#X connect 23 0 27 0;
#X connect 24 0 23 0;
#X connect 25 0 22 0;
#X connect 25 1 23 1;
#X connect 26 0 28 1;
#X connect 27 0 28 0;
#X connect 28 0 29 1;
#X connect 29 0 3 0;
#X connect 29 0 3 1;
#X connect 30 0 57 0;
#X connect 31 0 34 0;
#X connect 32 0 31 0;
#X connect 33 0 30 0;
#X connect 33 1 31 1;
#X connect 34 0 35 0;
#X connect 35 0 36 1;
#X connect 36 0 14 0;
#X connect 36 0 14 1;
#X connect 37 0 49 0;
#X connect 37 0 51 0;
#X connect 38 0 50 0;
#X connect 38 0 52 0;
#X connect 39 0 35 1;
#X connect 40 0 8 0;
#X connect 41 0 25 0;
#X connect 42 0 19 0;
#X connect 43 0 33 0;
#X connect 44 0 17 1;
#X connect 45 0 64 0;
#X connect 46 0 63 0;
#X connect 47 0 18 1;
#X connect 48 0 38 0;
#X connect 48 0 37 0;
#X connect 53 0 5 0;
#X connect 54 0 24 0;
#X connect 55 0 54 1;
#X connect 55 0 53 1;
#X connect 56 0 16 0;
#X connect 57 0 32 0;
#X connect 58 0 61 0;
#X connect 59 0 58 0;
#X connect 60 0 59 0;
#X connect 62 0 63 1;
#X connect 62 0 64 1;
#X connect 62 0 65 1;
#X connect 62 0 66 1;
#X connect 63 0 6 1;
#X connect 64 0 7 1;
#X connect 65 0 38 1;
#X connect 66 0 38 1;
#X connect 67 0 62 0;
#X connect 68 0 56 1;
#X connect 68 0 57 1;
#X restore 6 8 pd audio-works;
#N canvas 625 42 386 266 autotrigger 0;
#X obj 87 87 spigot;
#X obj 113 7 r autotrigger;
#X obj 160 54 del 50;
#X msg 161 81 0;
#X obj 242 52 loadbang;
#X msg 87 109 bang;
#X obj 112 32 == 1;
#X obj 38 58 sel 0;
#X floatatom 7 32 3 0 127 0 - - -;
#X floatatom 106 57 5 0 0 0 - - -;
#X obj 7 7 r real-pitctl1;
#X obj 87 134 s section-step;
#X connect 0 0 5 0;
#X connect 1 0 6 0;
#X connect 2 0 3 0;
#X connect 3 0 9 0;
#X connect 4 0 3 0;
#X connect 5 0 2 0;
#X connect 5 0 11 0;
#X connect 6 0 9 0;
#X connect 7 0 0 0;
#X connect 8 0 7 0;
#X connect 9 0 0 1;
#X connect 10 0 8 0;
#X restore 239 142 pd autotrigger;
#N canvas 19 508 668 176 more-follower-stuff 0;
#X msg 114 16 \; section-scofo print;
#X obj 16 2 section 1;
#X obj 308 25 r reset;
#X msg 309 47 \; section-qlist-number 1 read mantraqlist.txt \; section-scofo-number
1 read score/score1.txt;
#X connect 2 0 3 0;
#X restore 9 127 pd more-follower-stuff;
#N canvas 199 483 411 206 controls 0;
#X obj 31 32 setline ring1-pitch;
#X obj 31 119 setctl pitctl1;
#X obj 31 139 setctl ctl-select1;
#X obj 184 121 setctl pitctl2;
#X obj 184 140 setctl ctl-select2;
#X obj 31 54 setline ring1-p2;
#X obj 31 76 setline ring1-plus;
#X obj 31 98 setline ring1-minus;
#X obj 184 34 setline ring2-pitch;
#X obj 184 56 setline ring2-p2;
#X obj 184 78 setline ring2-plus;
#X obj 184 100 setline ring2-minus;
#X restore 307 68 pd controls;
#X obj 5 178 declare -path ../../lib -path .;
#N canvas 382 64 773 405 mixer-out 0;
#X obj 367 32 r~ piano2-mod;
#X obj 121 28 r~ piano1-mod;
#X obj 534 27 r~ morse-out;
#X obj 72 133 *~;
#X obj 208 132 *~;
#X obj 300 135 *~;
#X obj 367 131 *~;
#X obj 314 297 dac~ 1 2 3 4 5;
#X obj 15 27 r~ input-signal1;
#X obj 211 28 r~ input-signal2;
#X obj 534 129 *~;
#X obj 585 92 amp-linear~ gain-morse;
#X obj 95 158 amp-linear~ tgp~;
#X obj 74 182 *~;
#X obj 202 192 *~;
#X obj 340 85 amp-linear~ gain-modulated;
#X obj 144 94 amp-linear~ gain-direct;
#X connect 0 0 6 0;
#X connect 1 0 5 0;
#X connect 2 0 10 0;
#X connect 3 0 13 0;
#X connect 4 0 14 0;
#X connect 5 0 7 2;
#X connect 6 0 7 3;
#X connect 8 0 3 0;
#X connect 9 0 4 0;
#X connect 10 0 7 4;
#X connect 11 0 10 1;
#X connect 12 0 13 1;
#X connect 12 0 14 1;
#X connect 13 0 7 0;
#X connect 14 0 7 1;
#X connect 15 0 6 1;
#X connect 15 0 5 1;
#X connect 16 0 3 1;
#X connect 16 0 4 1;
#X restore 7 52 pd mixer-out;
#N canvas 228 134 270 295 mixer-in 0;
#X obj 86 5 hradio 15 1 1 2 empty empty empty 0 -8 0 10 -262144 -1
-1 0;
#X obj 61 140 tgl 15 1 empty empty empty 17 7 0 10 -262144 -1 -1 1
1;
#X obj 110 143 tgl 15 1 empty empty empty 17 7 0 10 -262144 -1 -1 0
1;
#X obj 47 78 -;
#X msg 47 58 1;
#X connect 0 0 2 0;
#X connect 0 0 3 1;
#X connect 0 0 4 0;
#X connect 3 0 1 0;
#X connect 4 0 3 0;
#X restore 6 30 pd mixer-in;
#N canvas 310 114 698 437 morse 0;
#X obj 130 369 s~ morse-out;
#X text 213 368 to mixer;
#X obj 21 23 r morse-status;
#X obj 21 48 select 1 0;
#X obj 86 210 line~;
#X msg 86 181 1 200;
#X obj 21 189 readsf~;
#X msg 21 94 1;
#X obj 21 264 *~;
#X obj 80 119 t b b;
#X msg 107 141 0;
#X obj 80 97 pipe 200;
#X obj 80 72 t b b;
#X msg 142 183 0 200;
#X obj 271 255 readsf~;
#X obj 267 331 *~;
#X obj 21 72 t b b b;
#X msg 251 179 1;
#X obj 472 197 print morse2;
#X obj 251 152 t b b;
#X msg 440 30 ../morse/morse.aiff;
#X obj 440 51 prepend set open;
#X msg 238 73 open ../morse/morse.aiff;
#X msg 287 180 open ../morse/morse.aiff;
#X obj 440 8 loadbang;
#X obj 238 106 print morse1;
#X connect 2 0 3 0;
#X connect 3 0 16 0;
#X connect 3 1 12 0;
#X connect 4 0 8 1;
#X connect 4 0 15 1;
#X connect 5 0 4 0;
#X connect 6 0 8 0;
#X connect 6 1 19 0;
#X connect 7 0 6 0;
#X connect 8 0 0 0;
#X connect 9 0 22 0;
#X connect 9 1 10 0;
#X connect 10 0 6 0;
#X connect 10 0 14 0;
#X connect 11 0 9 0;
#X connect 12 0 11 0;
#X connect 12 1 13 0;
#X connect 13 0 4 0;
#X connect 14 0 0 0;
#X connect 14 1 7 0;
#X connect 14 1 23 0;
#X connect 15 0 0 0;
#X connect 16 0 7 0;
#X connect 16 1 5 0;
#X connect 16 2 23 0;
#X connect 17 0 14 0;
#X connect 19 0 17 0;
#X connect 19 1 22 0;
#X connect 20 0 21 0;
#X connect 21 0 22 0;
#X connect 21 0 23 0;
#X connect 22 0 6 0;
#X connect 22 0 25 0;
#X connect 23 0 14 0;
#X connect 23 0 18 0;
#X connect 24 0 20 0;
#X restore 7 73 pd morse;
#N canvas 0 22 602 133 test-tone 0;
#X floatatom 22 51 0 0 0 0 - - -;
#X floatatom 22 5 0 0 0 0 - - -;
#X obj 22 75 osc~ 440;
#X obj 23 99 s~ testtone-osc;
#X obj 48 -28 r testtone-pitch;
#X obj 341 29 unpack 0 0;
#X obj 341 6 r testtone;
#X obj 212 7 r reset;
#X obj 427 53 s testtone-pitch;
#X obj 341 53 rmstodb;
#X obj 341 76 s testtone-1;
#X msg 212 32 \; testtone-pitch 69 \; testtone-1 0 \; testtone-2 0
;
#X obj 22 28 mtof2;
#X obj 54 7 r piano-intonation;
#X connect 0 0 2 0;
#X connect 1 0 12 0;
#X connect 2 0 3 0;
#X connect 4 0 1 0;
#X connect 5 0 9 0;
#X connect 5 1 8 0;
#X connect 6 0 5 0;
#X connect 7 0 11 0;
#X connect 9 0 10 0;
#X connect 12 0 0 0;
#X connect 13 0 12 1;
#X restore 240 121 pd test-tone;
#N canvas 42 22 1052 611 midi-notenames 0;
#X obj 22 7 r ring1-pitch;
#X obj 22 29 midi2note;
#X obj 198 28 midi2note;
#X obj 198 6 r ring2-pitch;
#X obj 198 50 s ring2-pitch-notename;
#X obj 22 50 s ring1-pitch-notename;
#X obj 23 103 midi2note;
#X obj 22 81 r ring1-p2;
#X obj 23 124 s ring1-p2-notename;
#X obj 199 102 midi2note;
#X obj 198 80 r ring2-p2;
#X obj 199 123 s ring2-p2-notename;
#X obj 25 155 r midi1-data;
#X obj 37 199 s midi1-data-show;
#X obj 173 154 r midi2-data;
#X obj 185 198 s midi2-data-show;
#X obj 168 256 r ring1-pitch;
#X obj 128 288 -;
#X obj 108 314 *;
#X obj 39 287 r midi1-ratio;
#X obj 135 341 +;
#X obj 135 368 s midi1-mapped-data;
#X obj 101 438 s midi1-mapped-data-show;
#X obj 87 468 midi2note;
#X obj 666 239 -;
#X obj 646 265 *;
#X obj 673 292 +;
#X obj 625 419 midi2note;
#X obj 636 207 r ring2-p2;
#X obj 98 256 r ring1-p2;
#X obj 706 207 r ring2-pitch;
#X obj 577 238 r midi2-ratio;
#X obj 673 319 s midi2-mapped-data;
#X obj 639 389 s midi2-mapped-data-show;
#X obj 138 548 s midi1-mapped-data-cents;
#X obj 138 519 * 100;
#X obj 676 468 * 100;
#X obj 676 497 s midi2-mapped-data-cents;
#X obj 800 207 r pitctl2;
#X obj 764 279 *;
#X obj 847 297 +;
#X obj 847 321 midi2note;
#X obj 847 347 s pitctl2-notename;
#X obj 301 335 *;
#X obj 384 353 +;
#X obj 384 377 midi2note;
#X obj 301 257 r pitctl1;
#X obj 384 403 s pitctl1-notename;
#X obj 301 281 / 126;
#X obj 800 230 / 126;
#X obj 445 349 s pitctl1-mapped-set;
#X obj 892 280 s pitctl2-mapped-set;
#X obj 454 96 + 1;
#X obj 454 125 s ctl1-mapped-set;
#X obj 609 121 s ctl2-mapped-set;
#X obj 609 93 - 7;
#X obj 453 56 r ctl-select1;
#X obj 608 53 r ctl-select2;
#X obj 173 175 speedlim 200;
#X obj 24 176 speedlim 200;
#X obj 87 489 s midi1-mapped-name;
#X obj 625 440 s midi2-mapped-name;
#X obj 89 411 speedlim 150;
#X obj 627 362 speedlim 150;
#X connect 0 0 1 0;
#X connect 1 0 5 0;
#X connect 2 0 4 0;
#X connect 3 0 2 0;
#X connect 6 0 8 0;
#X connect 7 0 6 0;
#X connect 9 0 11 0;
#X connect 10 0 9 0;
#X connect 12 0 59 0;
#X connect 14 0 58 0;
#X connect 16 0 17 1;
#X connect 16 0 20 1;
#X connect 16 0 44 1;
#X connect 17 0 18 1;
#X connect 17 0 43 1;
#X connect 18 0 20 0;
#X connect 19 0 18 0;
#X connect 20 0 21 0;
#X connect 20 0 62 0;
#X connect 23 0 60 0;
#X connect 23 1 35 0;
#X connect 24 0 25 1;
#X connect 24 0 39 1;
#X connect 25 0 26 0;
#X connect 26 0 32 0;
#X connect 26 0 63 0;
#X connect 27 0 61 0;
#X connect 27 1 36 0;
#X connect 28 0 24 0;
#X connect 29 0 17 0;
#X connect 30 0 24 1;
#X connect 30 0 26 1;
#X connect 30 0 40 1;
#X connect 31 0 25 0;
#X connect 35 0 34 0;
#X connect 36 0 37 0;
#X connect 38 0 49 0;
#X connect 39 0 40 0;
#X connect 40 0 41 0;
#X connect 40 0 51 0;
#X connect 41 0 42 0;
#X connect 43 0 44 0;
#X connect 44 0 45 0;
#X connect 44 0 50 0;
#X connect 45 0 47 0;
#X connect 46 0 48 0;
#X connect 48 0 43 0;
#X connect 49 0 39 0;
#X connect 52 0 53 0;
#X connect 55 0 54 0;
#X connect 56 0 52 0;
#X connect 57 0 55 0;
#X connect 58 0 15 0;
#X connect 59 0 13 0;
#X connect 62 0 22 0;
#X connect 62 0 23 0;
#X connect 63 0 27 0;
#X connect 63 0 33 0;
#X restore 308 47 pd midi-notenames;
#N canvas 433 98 450 300 mantra-start-stop 0;
#X obj 11 7 r mantra-start;
#X obj 253 11 r mantra-stop;
#X msg 15 51 \; keyboard-status-set 1;
#X msg 253 49 \; keyboard-status-set 0 \; morse-status-set 0 \; show-event
STOPPED \; show-next bang \;;
#X connect 0 0 2 0;
#X connect 1 0 3 0;
#X restore 159 4 pd mantra-start-stop;
#N canvas 0 22 257 123 mixer-connections 0;
#X obj 15 13 r master-in;
#X obj 119 14 r master-out;
#X obj 119 47 s tgp;
#X obj 15 47 s atten;
#X connect 0 0 3 0;
#X connect 1 0 2 0;
#X restore 6 93 pd mixer-connections;
#N canvas 78 175 1018 583 midi-router 0;
#X text 3 1 for convenience with the players \, they have 8 faders
\, sending in channel 1 \, the controller numbers coincides with the
fader number. here we reroute everything so that piano1 has controller
0-7 \, piano2 8-15;
#X obj 96 95 - 1;
#X obj 128 142 r ctl-select1;
#X obj 97 174 ==;
#X obj 50 203 spigot;
#X obj 371 174 ==;
#X obj 324 203 spigot;
#X obj 370 95 + 7;
#X obj 402 142 r ctl-select2;
#X obj 13 70 r midi1-raw-data;
#X obj 117 70 r midi1-raw-controller;
#X obj 287 70 r midi2-raw-data;
#X obj 395 70 r midi2-raw-controller;
#X obj 51 232 s midi1-data;
#X obj 402 122 s midi2-controller;
#X obj 325 232 s midi2-data;
#X obj 157 190 r pitctl1;
#X obj 411 200 r pitctl2;
#X text 14 273 for the BCF2000: we show the active fader by turning
on the corresponding button above it;
#X obj 84 314 r ctl1-mapped;
#X obj 115 396 float;
#X obj 173 419 t b f b;
#X msg 220 463 1;
#X msg 161 471 0;
#X obj 175 509 ctlout;
#X obj 43 417 t b f b;
#X msg 90 461 1;
#X obj 45 507 ctlout;
#X msg 31 469 127;
#X obj 76 364 t f b;
#X obj 79 342 + 20;
#X text 359 330 use controller 11 to variate morse amp;
#X obj 298 358 / 127;
#X obj 298 382 * 100;
#X obj 317 404 speedlim 200;
#X obj 298 452 s gain-morse;
#X obj 327 424 s gain-morse-set;
#X obj 498 361 r morse-midi-feedback;
#X obj 502 450 ctlout;
#X msg 528 416 11;
#X msg 558 414 1;
#X obj 498 384 t f b b;
#X obj 298 309 pack;
#X obj 298 332 route 11;
#X obj 587 43 r p1-fader;
#N canvas 162 89 450 300 ctl-fader 0;
#X obj 106 -4 inlet;
#X obj 55 -31 inlet;
#X obj 93 97 ctlout;
#X msg 149 66 1;
#X obj 54 -6 t f b;
#X connect 0 0 2 1;
#X connect 1 0 4 0;
#X connect 3 0 2 2;
#X connect 4 0 2 0;
#X connect 4 1 3 0;
#X restore 589 114 pd ctl-fader;
#X obj 591 73 unpack;
#X obj 689 70 print;
#X connect 1 0 3 0;
#X connect 2 0 3 1;
#X connect 3 0 4 1;
#X connect 4 0 13 0;
#X connect 5 0 6 1;
#X connect 6 0 15 0;
#X connect 7 0 5 0;
#X connect 7 0 14 0;
#X connect 8 0 5 1;
#X connect 9 0 4 0;
#X connect 9 0 42 1;
#X connect 10 0 1 0;
#X connect 10 0 42 0;
#X connect 11 0 6 0;
#X connect 12 0 7 0;
#X connect 16 0 13 0;
#X connect 17 0 15 0;
#X connect 19 0 30 0;
#X connect 20 0 21 0;
#X connect 21 0 23 0;
#X connect 21 1 24 1;
#X connect 21 2 22 0;
#X connect 22 0 24 2;
#X connect 23 0 24 0;
#X connect 25 0 28 0;
#X connect 25 1 27 1;
#X connect 25 2 26 0;
#X connect 26 0 27 2;
#X connect 28 0 27 0;
#X connect 29 0 25 0;
#X connect 29 0 20 1;
#X connect 29 1 20 0;
#X connect 30 0 29 0;
#X connect 32 0 33 0;
#X connect 33 0 34 0;
#X connect 33 0 35 0;
#X connect 34 0 36 0;
#X connect 37 0 41 0;
#X connect 39 0 38 1;
#X connect 40 0 38 2;
#X connect 41 0 38 0;
#X connect 41 1 39 0;
#X connect 41 2 40 0;
#X connect 42 0 43 0;
#X connect 43 0 32 0;
#X connect 44 0 46 0;
#X connect 44 0 47 0;
#X connect 46 0 45 0;
#X connect 46 1 45 1;
#X restore 9 149 pd midi-router;
#N canvas 0 22 450 300 display-events 0;
#X obj 87 18 r event;
#X obj 87 50 prepend list;
#X obj 107 95 s show-event;
#X obj 236 18 r next;
#X obj 233 50 prepend list;
#X obj 257 160 s show-next;
#X connect 0 0 1 0;
#X connect 1 0 2 0;
#X connect 3 0 4 0;
#X connect 4 0 5 0;
#X restore 307 26 pd display-events;
#N canvas 53 80 530 331 keyboard 0;
#X obj 9 36 s keyboard-status-set;
#X obj 9 96 s reset-bang;
#X obj 230 13 input.key.bang m;
#X obj 230 58 spigot;
#X obj 275 35 r keyboard-status;
#X obj 13 171 spigot;
#X obj 58 148 r keyboard-status;
#X obj 229 156 spigot;
#X obj 274 133 r keyboard-status;
#X obj 230 83 s morse-status-set;
#X obj 9 67 input.key.bang2 Shift_L Escape;
#X obj 9 12 input.key.bang2 Shift_L Return;
#X obj 229 181 s mantra-stop-set;
#X obj 229 211 input.key.bang Space;
#X obj 229 251 spigot;
#X obj 229 280 s section-step-bang;
#X obj 282 232 r keyboard-status;
#X obj 13 196 s mantra-start-bang;
#X obj 13 237 r pd;
#X obj 13 262 route dsp;
#X obj 13 288 s dsp-status-set;
#X obj 13 127 input.key.bang s;
#X obj 229 112 input.key.bang F8;
#X connect 2 0 3 0;
#X connect 3 0 9 0;
#X connect 4 0 3 1;
#X connect 5 0 17 0;
#X connect 6 0 5 1;
#X connect 7 0 12 0;
#X connect 8 0 7 1;
#X connect 10 0 1 0;
#X connect 11 0 0 0;
#X connect 13 0 14 0;
#X connect 14 0 15 0;
#X connect 16 0 14 1;
#X connect 18 0 19 0;
#X connect 19 0 20 0;
#X connect 21 0 5 0;
#X connect 22 0 7 0;
#X restore 308 6 pd keyboard;
#X restore 17 468 pd guts;
#X floatatom 324 351 3 0 0 0 - pitctl1-mapped-set pitctl1-mapped;
#X floatatom 627 356 3 0 0 0 - pitctl2-mapped-set pitctl2-mapped;
#X text 385 224 bcf2000 \, p-10;
#X text 640 224 nanoKONTROL \, scene 1;
#X obj 791 221 cnv 15 247 300 empty empty MANTRA 20 12 0 14 -33289
-128992 0;
#X obj 810 375 tgl 30 0 morse-status morse-status-set morse-status_(m)
34 15 0 10 -257985 -33289 -162280 0 1;
#X obj 810 292 tgl 30 0 keyboard-status keyboard-status-set keyboard-status_(+Enter)
33 13 0 10 -4034 -33289 -162280 0 1;
#X obj 811 414 bng 30 250 50 0 mantra-stop mantra-stop-set stop_(F8)
35 15 0 10 -258113 -262144 -162280;
#X obj 810 331 bng 30 250 50 0 mantra-start mantra-start-bang start_(s)
35 15 0 10 -4034 -33289 -162280;
#X obj 810 252 bng 30 250 50 0 reset reset-bang reset_(+Esc) 33 13
0 10 -191407 -33289 -162280;
#X obj 211 505 cnv 15 550 35 empty empty empty 20 12 0 14 -260097 -262144
0;
#X obj 543 490 r show-next;
#X obj 812 465 bng 30 100 20 0 section-step section-step-bang section-step_(space)
35 15 0 10 -50240 -262144 -262144;
#X obj 933 58 vsl 15 100 0 100 0 1 empty gain-morse-set gain-morse
0 -9 0 10 -4034 -1 -1 0 1;
#X floatatom 933 191 5 0 0 0 - - -;
#X obj 933 168 speedlim 200;
#X obj 920 256 bng 15 250 50 0 reset-faders1 empty reset_faders_1 17
7 0 10 -228856 -1 -262144;
#X obj 198 467 pddp/print;
#X obj 492 468 pddp/print;
#X obj 198 447 r midi1-mapped-name;
#X obj 492 448 r midi2-mapped-name;
#X obj 969 334 tgl 30 0 empty dsp-status-set dsp 33 13 0 10 -162280
-66577 -191407 1 1;
#X obj 717 402 nbx 1 20 0 256 0 0 ctl2-mapped ctl2-mapped-set ctl2-mapped
-100 12 0 13 -33289 -257985 -1 0 256;
#X obj 434 398 nbx 1 20 0 256 0 0 ctl1-mapped ctl1-mapped-set ctl1-mapped
-100 12 0 13 -33289 -257985 -1 0 256;
#X floatatom 746 483 5 0 0 0 - - -;
#X obj 16 517 nbx 5 20 -1e+37 1e+37 0 1 piano-intonation piano-intonation-set
piano-intonation 0 -8 0 13 -33289 -257985 -33289 442 256;
#X obj 688 483 mtof2 442;
#X text 19 334 test midi;
#X text 224 557 ver compas 134 \, piano 2 \, 5-7 hz \, --> score;
#X text 220 597 hacer una posi bilidad de ir hacia atras en los eventos
;
#X text 525 555 compas 185 \, evento 8 comienza en el 185 ultimo tiempo
(cambias score);
#X obj 1129 88 vsl 15 128 0 1 0 1 empty empty empty 0 -9 0 10 -262144
-1 -1 7200 1;
#X floatatom 1129 227 5 0 0 0 - - -;
#X obj 1137 278 rmstodb;
#X obj 1092 335 -;
#X obj 1077 294 t b f;
#X msg 1058 373 1;
#X obj 1106 384 rmstodb;
#X text 487 520 next event;
#X obj 282 515 print-cnv show-event;
#X text 216 517 show-event;
#X obj 553 515 s;
#X obj 553 515 print-cnv show-next 80;
#X connect 4 0 0 0;
#X connect 5 0 0 1;
#X connect 6 0 7 0;
#X connect 30 0 28 0;
#X connect 33 0 39 0;
#X connect 35 0 40 0;
#X connect 37 0 42 0;
#X connect 38 0 44 0;
#X connect 39 0 34 0;
#X connect 40 0 36 0;
#X connect 42 0 41 0;
#X connect 44 0 43 0;
#X connect 47 0 6 0;
#X connect 62 0 61 0;
#X connect 73 0 103 0;
#X connect 75 0 74 0;
#X connect 90 0 92 0;
#X connect 92 0 91 0;
#X connect 96 0 94 0;
#X connect 97 0 95 0;
#X connect 103 0 101 0;
#X connect 108 0 109 0;
#X connect 109 0 110 0;
#X connect 109 0 112 0;
#X connect 110 0 38 0;
#X connect 111 0 114 0;
#X connect 112 0 113 0;
#X connect 112 1 111 1;
#X connect 113 0 111 0;
#X connect 114 0 37 0;
