#N canvas 501 246 450 300 10;
#X obj 136 90 t b f;
#X obj 80 44 inlet;
#X obj 193 42 inlet;
#X obj 81 161 outlet;
#X obj 160 161 outlet;
#X obj 81 91 f \$1;
#X connect 0 0 5 0;
#X connect 0 1 4 0;
#X connect 1 0 5 1;
#X connect 1 0 5 0;
#X connect 2 0 0 0;
#X connect 5 0 3 0;
