#N canvas 135 93 450 300 10;
#X text 154 66 expecting a bang to perform iniatialization;
#X obj 19 61 loadbang;
#X obj 75 177 s \$1;
#X obj 76 61 inlet;
#X obj 118 60 r \$3;
#X msg 59 115 symbol \$2;
#X connect 1 0 5 0;
#X connect 3 0 5 0;
#X connect 4 0 5 0;
#X connect 5 0 2 0;
