#N canvas 0 22 622 305 10;
#X obj 137 90 list split 1;
#X obj 204 62 t a a;
#X obj 193 166 list;
#X msg 182 137 bang;
#X obj 193 189 list trim;
#X obj 204 37 inlet;
#X obj 193 214 outlet;
#X text 276 52;
#X obj 137 114 select #;
#X text 271 35 skip all messages beginning with #;
#X connect 0 0 8 0;
#X connect 1 0 0 0;
#X connect 1 1 2 1;
#X connect 2 0 4 0;
#X connect 3 0 2 0;
#X connect 4 0 6 0;
#X connect 5 0 1 0;
#X connect 8 1 3 0;
