#N canvas 13 27 1404 688 10;
#X msg 190 299 1;
#X msg 222 299 0;
#X obj 215 412 t l;
#X obj 122 485 spigot 0;
#X obj 202 393 bng 15 250 50 0 empty empty empty 17 7 0 10 -262144
-1 -1;
#X obj 122 412 list prepend;
#X msg 28 444 1;
#X obj 56 402 + 1;
#X obj 28 402 f 0;
#X msg 53 382 0;
#X obj 123 365 t l b;
#X obj 116 77 inlet~;
#X obj 565 18 inlet;
#X text 564 0 Onset report from bonk~;
#X text 243 407 This accumulates the list of feature \; data as it
is banged out successively.;
#X obj 122 621 outlet;
#X obj 123 344 specCentroid~ 1024;
#X obj 706 436 t l;
#X obj 613 509 spigot 0;
#X obj 694 416 bng 15 250 50 0 empty empty empty 17 7 0 10 -262144
-1 -1;
#X obj 613 436 list prepend;
#X msg 685 537 0;
#X msg 719 493 1;
#X obj 567 456 + 1;
#X obj 539 456 f 0;
#X msg 554 430 0;
#X obj 614 389 t l b;
#X obj 122 593 list append;
#X obj 614 368 specFlatness~ 1024;
#X obj 936 436 t l;
#X obj 843 509 spigot 0;
#X obj 924 416 bng 15 250 50 0 empty empty empty 17 7 0 10 -262144
-1 -1;
#X obj 843 436 list prepend;
#X msg 916 493 0;
#X msg 949 493 1;
#X obj 797 456 + 1;
#X obj 769 456 f 0;
#X msg 794 436 0;
#X obj 844 389 t l b;
#X obj 844 368 zeroCrossing~ 1024;
#X obj 190 319 metro 5.80499;
#X msg 645 310 1;
#X msg 677 310 0;
#X obj 645 330 metro 5.80499;
#X msg 878 310 1;
#X msg 910 310 0;
#X obj 878 330 metro 5.80499;
#X obj 613 562 list append;
#X obj 143 514 list prepend 0;
#X obj 143 538 s graph-centroid;
#X obj 524 596 list prepend 0;
#X obj 524 620 s graph-flatness;
#X obj 793 595 list prepend 0;
#X obj 793 619 s graph-zerocross;
#X obj 343 251 cnv 15 200 150 empty empty empty 20 12 0 14 -257985
-66577 0;
#N canvas 213 81 1036 551 graph-centroid 0;
#N canvas 0 22 450 300 (subpatch) 0;
#X array graph-centroid 57 float 0;
#X coords 0 15000 56 0 700 500 1;
#X restore 33 26 graph;
#X floatatom 755 99 5 0 0 0 - - -;
#X msg 755 117 \; graph-centroid bounds 0 \$1 56 0 \;;
#X floatatom 755 189 5 0 0 0 - - -;
#X msg 755 207 \; graph-centroid bounds 0 15000 \$1 0 \;;
#X text 798 97 Resize Y axis upper limit;
#X text 798 187 Resize X axis upper limit;
#X connect 1 0 2 0;
#X connect 3 0 4 0;
#X restore 376 297 pd graph-centroid;
#N canvas 192 118 1034 556 graph-flatness 0;
#N canvas 0 22 450 300 (subpatch) 0;
#X array graph-flatness 57 float 0;
#X coords 0 0.8 56 0 700 500 1;
#X restore 36 31 graph;
#X floatatom 755 99 5 0 0 0 - - -;
#X floatatom 755 189 5 0 0 0 - - -;
#X text 798 97 Resize Y axis upper limit;
#X text 798 187 Resize X axis upper limit;
#X msg 755 117 \; graph-flatness bounds 0 \$1 56 0 \;;
#X msg 755 207 \; graph-centroid bounds 0 0.8 \$1 0 \;;
#X connect 1 0 5 0;
#X connect 2 0 6 0;
#X restore 376 317 pd graph-flatness;
#N canvas 298 99 1038 533 graph-zerocross 0;
#N canvas 0 22 450 300 (subpatch) 0;
#X array graph-zerocross 57 float 0;
#X coords 0 800 56 0 700 500 1;
#X restore 28 -30 graph;
#X floatatom 755 99 5 0 0 0 - - -;
#X floatatom 755 189 5 0 0 0 - - -;
#X text 798 97 Resize Y axis upper limit;
#X text 798 187 Resize X axis upper limit;
#X msg 755 117 \; graph-zerocross bounds 0 \$1 56 0 \;;
#X msg 755 207 \; graph-zerocross bounds 0 800 \$1 0 \;;
#X connect 1 0 5 0;
#X connect 2 0 6 0;
#X restore 376 337 pd graph-zerocross;
#X text 357 258 Watch the graphs during \; analysis...;
#N canvas 324 116 450 185 why 0;
#X text 19 26 The metro rate is determined by dividing analysis spacing
in samples by sample rate. Then multiply by 1000 to convert to milliseconds.
(256/44100)*1000 = 5.80499.;
#X text 19 76 The amount of time we wait before turning off the metro
is just the metro rate times the number of frames we want to capture
\, minus a little bit to make sure we don't get one frame too many.
So for 57 frames \, we should multiply 5.80499 by 56.5. Our analysis
will cover the first 1/3 of a second of each sound.;
#X restore 141 247 pd why these numbers?;
#X obj 612 145 *~ 1;
#X obj 1156 449 t l;
#X obj 1063 522 spigot 0;
#X obj 1144 429 bng 15 250 50 0 empty empty empty 17 7 0 10 -262144
-1 -1;
#X obj 1063 449 list prepend;
#X msg 1136 506 0;
#X msg 1169 506 1;
#X obj 1017 469 + 1;
#X obj 989 469 f 0;
#X msg 1014 449 0;
#X obj 1064 402 t l b;
#X msg 1107 311 1;
#X msg 1139 311 0;
#X obj 1107 331 metro 5.80499;
#X obj 1003 615 list prepend 0;
#X obj 1064 358 env~ 1024 128;
#X obj 1003 639 s graph-env;
#X obj 843 541 list append;
#X obj 842 145 *~ 1;
#X obj 1062 145 *~ 1;
#N canvas 298 99 1029 530 graph-env 0;
#N canvas 0 22 450 300 (subpatch) 0;
#X array graph-env 57 float 0;
#X coords 0 100 56 0 700 500 1;
#X restore 28 -30 graph;
#X floatatom 755 99 5 0 0 0 - - -;
#X floatatom 755 189 5 0 0 0 - - -;
#X text 798 97 Resize Y axis upper limit;
#X text 798 187 Resize X axis upper limit;
#X msg 755 117 \; graph-env bounds 0 \$1 56 0 \;;
#X msg 755 207 \; graph-env bounds 0 100 \$1 0 \;;
#X connect 1 0 5 0;
#X connect 2 0 6 0;
#X restore 376 357 pd graph-env;
#X obj 1049 379 f 0;
#X obj 28 423 select 56;
#X obj 539 477 select 56;
#X obj 769 477 select 56;
#X obj 989 490 select 56;
#X obj 222 274 del 327.98;
#X obj 677 285 del 327.98;
#X obj 910 285 del 327.98;
#X obj 1139 286 del 327.98;
#X msg 343 175 \; graph-centroid resize \$1 \; graph-flatness resize
\$1 \; graph-zerocross resize \$1 \; graph-env resize \$1 \;;
#X floatatom 343 155 5 0 0 0 - - -;
#X text 139 153 Open the floodgate for metro \; and delay an appropriate
\; amount before closing it to \; create 57 snapshots spaced 256 \;
samples apart in time. Take \; fewer or more snapshots with \; different
spacing if you like.;
#X obj 1376 449 t l;
#X obj 1283 522 spigot 0;
#X obj 1364 429 bng 15 250 50 0 empty empty empty 17 7 0 10 -262144
-1 -1;
#X obj 1283 449 list prepend;
#X msg 1356 506 0;
#X msg 1389 506 1;
#X obj 1237 469 + 1;
#X obj 1209 469 f 0;
#X msg 1234 449 0;
#X obj 1284 402 t l b;
#X msg 1327 311 1;
#X msg 1359 311 0;
#X obj 1327 331 metro 5.80499;
#X obj 1209 490 select 56;
#X obj 1359 286 del 327.98;
#X obj 1282 145 *~ 1;
#X obj 565 39 t b b b b b;
#X obj 1284 358 bfcc~ 1024 0.5;
#X obj 1063 561 list append;
#X obj 766 26 inlet;
#X obj 851 27 inlet;
#X text 753 8 window size;
#X text 841 10 hopsize;
#X text 925 -2 num-snapshots;
#X obj 1141 -2 loadbang;
#X msg 1141 22 44100;
#X text 1215 85 delay to turn metro off;
#X obj 1159 112 expr $f1 / $f2 * 1000;
#X text 1315 112 rate metro;
#X obj 766 69 prepend window;
#X text 1095 375 env~ is set independently;
#X obj 1190 130 print metro;
#X obj 1034 13 inlet;
#X text 1033 -5 overlap;
#X obj 1034 34 prepend overlap;
#X text 247 596 conectar desde spigot 0 para ver la evolucion;
#X obj 927 15 inlet;
#X msg 167 462 0;
#X obj 53 240 t b b b;
#X obj 927 37 - 0;
#X obj 1127 86 print delay;
#X obj 996 68 expr $f1 / $f3 * 1000 * ($f2 - 0);
#X obj 551 268 t b b b;
#X obj 794 268 t b b b;
#X obj 1014 269 t b b b;
#X obj 1234 269 t b b b;
#X obj 38 548 nbx 5 14 -1e+37 1e+37 0 0 empty empty empty 0 -8 0 10
-262144 -1 -1 19 256;
#X connect 0 0 40 0;
#X connect 1 0 40 0;
#X connect 2 0 5 1;
#X connect 3 0 9 0;
#X connect 3 0 4 0;
#X connect 3 0 27 0;
#X connect 3 0 130 0;
#X connect 4 0 5 1;
#X connect 5 0 2 0;
#X connect 5 0 3 0;
#X connect 6 0 3 1;
#X connect 7 0 8 1;
#X connect 8 0 7 0;
#X connect 8 0 82 0;
#X connect 8 0 139 0;
#X connect 9 0 8 1;
#X connect 10 0 5 0;
#X connect 10 1 8 0;
#X connect 11 0 16 0;
#X connect 11 0 60 0;
#X connect 11 0 78 0;
#X connect 11 0 79 0;
#X connect 11 0 108 0;
#X connect 12 0 109 0;
#X connect 16 0 10 0;
#X connect 17 0 20 1;
#X connect 18 0 21 0;
#X connect 18 0 25 0;
#X connect 18 0 19 0;
#X connect 18 0 47 0;
#X connect 19 0 20 1;
#X connect 20 0 17 0;
#X connect 20 0 18 0;
#X connect 21 0 18 1;
#X connect 22 0 18 1;
#X connect 23 0 24 1;
#X connect 24 0 23 0;
#X connect 24 0 83 0;
#X connect 25 0 24 1;
#X connect 26 0 20 0;
#X connect 26 1 24 0;
#X connect 27 0 15 0;
#X connect 28 0 26 0;
#X connect 29 0 32 1;
#X connect 30 0 33 0;
#X connect 30 0 37 0;
#X connect 30 0 31 0;
#X connect 30 0 77 0;
#X connect 31 0 32 1;
#X connect 32 0 29 0;
#X connect 32 0 30 0;
#X connect 33 0 30 1;
#X connect 34 0 30 1;
#X connect 35 0 36 1;
#X connect 36 0 35 0;
#X connect 36 0 84 0;
#X connect 37 0 36 1;
#X connect 38 0 32 0;
#X connect 38 1 36 0;
#X connect 39 0 38 0;
#X connect 40 0 16 0;
#X connect 41 0 43 0;
#X connect 42 0 43 0;
#X connect 43 0 28 0;
#X connect 44 0 46 0;
#X connect 45 0 46 0;
#X connect 46 0 39 0;
#X connect 47 0 27 1;
#X connect 48 0 49 0;
#X connect 50 0 51 0;
#X connect 52 0 53 0;
#X connect 60 0 28 0;
#X connect 61 0 64 1;
#X connect 62 0 65 0;
#X connect 62 0 69 0;
#X connect 62 0 63 0;
#X connect 62 0 111 0;
#X connect 63 0 64 1;
#X connect 64 0 61 0;
#X connect 64 0 62 0;
#X connect 65 0 62 1;
#X connect 66 0 62 1;
#X connect 67 0 68 1;
#X connect 68 0 67 0;
#X connect 68 0 85 0;
#X connect 69 0 68 1;
#X connect 70 0 64 0;
#X connect 70 1 68 0;
#X connect 71 0 73 0;
#X connect 72 0 73 0;
#X connect 73 0 81 0;
#X connect 74 0 76 0;
#X connect 75 0 81 1;
#X connect 77 0 47 1;
#X connect 78 0 39 0;
#X connect 79 0 75 0;
#X connect 81 0 70 0;
#X connect 82 0 6 0;
#X connect 83 0 22 0;
#X connect 84 0 34 0;
#X connect 85 0 66 0;
#X connect 86 0 1 0;
#X connect 87 0 42 0;
#X connect 88 0 45 0;
#X connect 89 0 72 0;
#X connect 91 0 90 0;
#X connect 93 0 96 1;
#X connect 94 0 97 0;
#X connect 94 0 101 0;
#X connect 94 0 95 0;
#X connect 94 0 111 1;
#X connect 95 0 96 1;
#X connect 96 0 93 0;
#X connect 96 0 94 0;
#X connect 97 0 94 1;
#X connect 98 0 94 1;
#X connect 99 0 100 1;
#X connect 100 0 99 0;
#X connect 100 0 106 0;
#X connect 101 0 100 1;
#X connect 102 0 96 0;
#X connect 102 1 100 0;
#X connect 103 0 105 0;
#X connect 104 0 105 0;
#X connect 105 0 110 0;
#X connect 106 0 98 0;
#X connect 107 0 104 0;
#X connect 108 0 110 0;
#X connect 109 0 131 0;
#X connect 109 1 135 0;
#X connect 109 2 136 0;
#X connect 109 3 137 0;
#X connect 109 4 138 0;
#X connect 110 0 102 0;
#X connect 111 0 77 1;
#X connect 112 0 122 0;
#X connect 113 0 120 0;
#X connect 113 0 134 0;
#X connect 117 0 118 0;
#X connect 118 0 120 1;
#X connect 118 0 134 2;
#X connect 120 0 73 1;
#X connect 120 0 105 1;
#X connect 120 0 46 1;
#X connect 120 0 43 1;
#X connect 120 0 40 1;
#X connect 120 0 124 0;
#X connect 122 0 16 0;
#X connect 122 0 28 0;
#X connect 122 0 39 0;
#X connect 122 0 110 0;
#X connect 125 0 127 0;
#X connect 127 0 16 0;
#X connect 127 0 28 0;
#X connect 127 0 39 0;
#X connect 127 0 110 0;
#X connect 129 0 132 0;
#X connect 130 0 3 1;
#X connect 131 0 9 0;
#X connect 131 1 0 0;
#X connect 131 2 86 0;
#X connect 132 0 83 1;
#X connect 132 0 82 1;
#X connect 132 0 84 1;
#X connect 132 0 85 1;
#X connect 132 0 106 1;
#X connect 132 0 134 1;
#X connect 134 0 88 1;
#X connect 134 0 89 1;
#X connect 134 0 107 1;
#X connect 134 0 87 1;
#X connect 134 0 86 1;
#X connect 134 0 133 0;
#X connect 135 0 25 0;
#X connect 135 1 41 0;
#X connect 135 2 87 0;
#X connect 136 0 37 0;
#X connect 136 1 44 0;
#X connect 136 2 88 0;
#X connect 137 0 69 0;
#X connect 137 1 71 0;
#X connect 137 2 89 0;
#X connect 138 0 101 0;
#X connect 138 1 103 0;
#X connect 138 2 107 0;
