#N canvas 234 28 490 389 10;
#X obj 142 5 inlet;
#X obj 125 220 textfile;
#X msg 189 112 clear;
#X msg 111 128 rewind;
#X obj 68 139 until;
#X obj 142 83 t b b a b b;
#X obj 158 271 + 1;
#X obj 170 306 f 0;
#X obj 170 334 outlet;
#X msg 125 243 bang;
#X obj 125 271 f 1;
#X msg 240 110 1;
#X msg 142 56 read \$1 cr;
#X obj 142 31 pp symbol;
#X connect 0 0 13 0;
#X connect 1 0 9 0;
#X connect 1 1 4 1;
#X connect 1 1 7 0;
#X connect 2 0 1 0;
#X connect 3 0 1 0;
#X connect 4 0 1 0;
#X connect 5 0 4 0;
#X connect 5 1 3 0;
#X connect 5 2 1 0;
#X connect 5 3 2 0;
#X connect 5 4 11 0;
#X connect 6 0 10 1;
#X connect 7 0 8 0;
#X connect 9 0 10 0;
#X connect 10 0 6 0;
#X connect 10 0 7 1;
#X connect 11 0 10 1;
#X connect 12 0 5 0;
#X connect 13 0 12 0;
